<svg xmlns="http://www.w3.org/2000/svg" viewBox="0 0 700 300">
  <defs>
    <linearGradient id="g" x1="0" x2="1" y1="0" y2="1">
      <stop stop-color="#061431"/>
      <stop offset=".55" stop-color="#101827"/>
      <stop offset="1" stop-color="#0b0b1c"/>
    </linearGradient>
    <linearGradient id="rim" x1="0" x2="1">
      <stop stop-color="#9945ff"/><stop offset="1" stop-color="#14f195"/>
    </linearGradient>
    <filter id="shadow" x="-30%" y="-30%" width="160%" height="160%">
      <feDropShadow dx="0" dy="16" stdDeviation="12" flood-color="#000" flood-opacity=".55"/>
      <feDropShadow dx="0" dy="0" stdDeviation="8" flood-color="#14f195" flood-opacity=".3"/>
    </filter>
  </defs>
  <g filter="url(#shadow)">
    <path d="M158 191c15-97 75-151 192-151s178 54 192 151c-92 24-293 24-384 0z" fill="url(#g)" stroke="#1f2946" stroke-width="8"/>
    <path d="M92 181c152 32 365 32 516 0 45 7 77 26 83 54-183 48-499 48-682 0 7-28 38-47 83-54z" fill="#060a16" stroke="url(#rim)" stroke-width="7"/>
    <path d="M253 52c10 61 10 112 0 153M447 52c-10 61-10 112 0 153" stroke="#243554" stroke-width="5" opacity=".8"/>
    <path d="M191 172c98 20 220 20 318 0" fill="none" stroke="#14f195" stroke-width="4" opacity=".75"/>
    <text x="350" y="108" text-anchor="middle" fill="#fff" font-family="Georgia, serif" font-size="42" font-weight="800">MAKE SOLANA AI</text>
    <text x="350" y="158" text-anchor="middle" fill="#fff" font-family="Georgia, serif" font-size="42" font-weight="800">GREAT AGAIN</text>
  </g>
</svg>
