<svg xmlns="http://www.w3.org/2000/svg" viewBox="0 0 900 300">
  <defs>
    <linearGradient id="lens" x1="0" x2="1" y1="0" y2="1">
      <stop stop-color="#1a093f"/><stop offset=".4" stop-color="#743df0"/><stop offset=".78" stop-color="#16f1be"/><stop offset="1" stop-color="#071127"/>
    </linearGradient>
    <linearGradient id="frame" x1="0" x2="1">
      <stop stop-color="#e9ecff"/><stop offset=".45" stop-color="#656a7b"/><stop offset="1" stop-color="#effff8"/>
    </linearGradient>
    <filter id="glow" x="-25%" y="-25%" width="150%" height="150%">
      <feDropShadow dx="0" dy="0" stdDeviation="10" flood-color="#14f195" flood-opacity=".55"/>
      <feDropShadow dx="0" dy="13" stdDeviation="16" flood-color="#000" flood-opacity=".55"/>
    </filter>
  </defs>
  <g filter="url(#glow)">
    <path d="M87 83c107-35 612-35 726 0 32 10 47 34 41 63l-24 91c-7 27-30 44-59 44H546c-37 0-67-26-74-61l-7-32h-30l-7 32c-7 35-37 61-74 61H129c-29 0-52-17-59-44l-24-91c-7-29 9-53 41-63z" fill="url(#frame)"/>
    <path d="M99 101c95-25 284-27 331-6 17 8 28 23 31 42l9 52c-16 6-27 22-33 47-8 32-36 54-69 54H148c-26 0-48-18-54-43l-23-93c-7-27 4-45 28-53z" fill="url(#lens)" opacity=".94"/>
    <path d="M801 101c-95-25-284-27-331-6-17 8-28 23-31 42l-9 52c16 6 27 22 33 47 8 32 36 54 69 54h220c26 0 48-18 54-43l23-93c7-27-4-45-28-53z" fill="url(#lens)" opacity=".94"/>
    <path d="M107 120c110-19 220-17 303 4M491 124c83-21 193-23 303-4" stroke="#14f195" stroke-width="8" stroke-linecap="round" opacity=".85"/>
    <g transform="translate(573 112) skewX(-16)">
      <rect x="0" y="0" width="78" height="22" rx="5" fill="#14f195"/>
      <rect x="0" y="38" width="78" height="22" rx="5" fill="#9945ff"/>
      <rect x="0" y="76" width="78" height="22" rx="5" fill="#14f195" opacity=".9"/>
    </g>
  </g>
</svg>
